<svg class="animated" id="freepik_stories-happy-sun" xmlns="http://www.w3.org/2000/svg" viewBox="100 20 300 440" version="1.1" xmlns:xlink="http://www.w3.org/1999/xlink" xmlns:svgjs="http://svgjs.com/svgjs"><style>svg#freepik_stories-happy-sun:not(.animated) .animable {opacity: 0;}svg#freepik_stories-happy-sun.animated #freepik--Sun--inject-23 {animation: 1.5s Infinite  linear floating;animation-delay: 0s;}            @keyframes floating {                0% {                    opacity: 1;                    transform: translateY(0px);                }                50% {                    transform: translateY(-10px);                }                100% {                    opacity: 1;                    transform: translateY(0px);                }            }        .animator-hidden { display: none; }</style><g id="freepik--background-complete--inject-23" class="animable animator-hidden" style="transform-origin: 250px 250px;"><polygon points="269.33 23.06 250 250 230.68 23.06 269.33 23.06" style="fill: rgb(235, 235, 235); transform-origin: 250.005px 136.53px;" id="eln11xtlpw7bf" class="animable"></polygon><polygon points="153.27 43.79 250 250 119.8 63.12 153.27 43.79" style="fill: rgb(235, 235, 235); transform-origin: 184.9px 146.895px;" id="el06eyuofxs4hj" class="animable"></polygon><polygon points="63.13 119.78 250 250 43.8 153.26 63.13 119.78" style="fill: rgb(235, 235, 235); transform-origin: 146.9px 184.89px;" id="el8d1zzca26mj" class="animable"></polygon><polygon points="23.06 230.67 250 250 23.06 269.32 23.06 230.67" style="fill: rgb(235, 235, 235); transform-origin: 136.53px 249.995px;" id="elx1i0af048kf" class="animable"></polygon><polygon points="43.79 346.73 250 250 63.12 380.2 43.79 346.73" style="fill: rgb(235, 235, 235); transform-origin: 146.895px 315.1px;" id="elosvomhkp8j" class="animable"></polygon><polygon points="119.78 436.87 250 250 153.26 456.2 119.78 436.87" style="fill: rgb(235, 235, 235); transform-origin: 184.89px 353.1px;" id="elxg022ee4thp" class="animable"></polygon><polygon points="230.67 476.94 250 250 269.32 476.94 230.67 476.94" style="fill: rgb(235, 235, 235); transform-origin: 249.995px 363.47px;" id="el9sj1py0qdn6" class="animable"></polygon><polygon points="346.73 456.21 250 250 380.2 436.88 346.73 456.21" style="fill: rgb(235, 235, 235); transform-origin: 315.1px 353.105px;" id="elfsreccmhacb" class="animable"></polygon><polygon points="436.87 380.21 250 250 456.2 346.74 436.87 380.21" style="fill: rgb(235, 235, 235); transform-origin: 353.1px 315.105px;" id="elphbtzhvbv9" class="animable"></polygon><polygon points="476.94 269.33 250 250 476.94 230.68 476.94 269.33" style="fill: rgb(235, 235, 235); transform-origin: 363.47px 250.005px;" id="elihl4d0skxmb" class="animable"></polygon><polygon points="456.21 153.27 250 250 436.88 119.8 456.21 153.27" style="fill: rgb(235, 235, 235); transform-origin: 353.105px 184.9px;" id="el7ueee5oenkf" class="animable"></polygon><polygon points="380.21 63.13 250 250 346.74 43.8 380.21 63.13" style="fill: rgb(235, 235, 235); transform-origin: 315.105px 146.9px;" id="elibqw7p8nf2p" class="animable"></polygon></g><g id="freepik--Sun--inject-23" class="animable" style="transform-origin: 250px 250px;"><g id="elwafw1arzd"><path d="M250,68.28h0A85.78,85.78,0,0,0,356.81,103h0a85.79,85.79,0,0,0,66,90.86h0a85.78,85.78,0,0,0,0,112.3h0a85.79,85.79,0,0,0-66,90.86h0A85.78,85.78,0,0,0,250,431.72h0A85.78,85.78,0,0,0,143.19,397h0a85.79,85.79,0,0,0-66-90.86h0a85.78,85.78,0,0,0,0-112.3h0a85.79,85.79,0,0,0,66-90.86h0A85.78,85.78,0,0,0,250,68.28Z" style="fill: #F3BF2B; opacity: 0.5; transform-origin: 250px 250px;" class="animable" id="elh0rmumqzwka"></path></g><path d="M304.26,92c7.89,37.73,44.06,64.8,82.47,61.68l.64,0-.26.59c-11.49,25.67-7.66,57.21,9.67,79.35,5.25,7.15,14,14.47,20.23,18.54l.33,1.22a78.13,78.13,0,0,0-33.07,96.75l.53,1.31-1.41-.14c-38-4.21-74.61,21.53-83.53,58.66l-.37,1.48-1.15-1c-28.21-25.7-72.94-26.42-102-1.64l.07-.06-1.71-.71c-7.72-36.83-42.91-64.06-81.43-61.14l-1.53.11.62-1.41c11.55-25.49,7.79-56.89-9.4-79a77.91,77.91,0,0,0-20.47-18.64l.46.13-.43-1.59a78.15,78.15,0,0,0,33.35-96.65l-.41-1,1.09.11c38.13,4.34,74.94-21.48,84.07-58.72l.16-.63.48.44c28.39,26.07,73.56,26.91,103,2Zm0,0c-29.39,25.24-74.79,24.56-103.48-1.43l.26.1.38-.3C194.84,118.12,172.19,141,144.58,148a79.36,79.36,0,0,1-28.13,2.2l.73-.65c7,16.24,7.71,37.75,1.5,55.32A79.63,79.63,0,0,1,83.42,248l.17-.14-.6-1.46-.09-.21.54.34c33.32,20.42,46.75,64.21,30.65,99.8l.08-.37-1-.93c39-3.07,75.64,24.49,83.54,62.78l.05.22h0l-1.7-.71c29.74-25.42,75.65-24.64,104.54,1.74l-.62-.24-.9.71c9.17-38,46.69-64.26,85.51-59.91l-.94.85.06.32c-10.9-26.43-5.9-58.38,12.45-80.28a79.69,79.69,0,0,1,21.41-18.14l.46,1.12.07.16-.41-.26c-33.11-20.41-46.45-64-30.27-99.41l0,.15.42.39C348.16,157.36,311.94,130,304.26,92Z" style="fill: #F3BF2B; transform-origin: 249.915px 250.52px;" id="elhb08ot4dzws" class="animable"></path><path d="M383.31,250a132.66,132.66,0,0,1-25.46,78.37v0A133.32,133.32,0,1,1,250,116.69q5.49,0,10.86.44A132.47,132.47,0,0,1,319.19,136a134.16,134.16,0,0,1,35.61,31.56,135.83,135.83,0,0,1,8.32,11.83A132.76,132.76,0,0,1,383.31,250Z" style="fill: #F3BF2B; transform-origin: 249.99px 250.01px;" id="elp4f8nlw9mh" class="animable"></path><g id="elqq6qcl2i9k"><g style="opacity: 0.05; transform-origin: 250.01px 249.97px;" class="animable" id="elf2ce95ypm5"><path d="M363.12,179.42a131.74,131.74,0,0,0-8.33-11.83A134,134,0,0,0,319.19,136a132.48,132.48,0,0,0-58.33-18.91c-3.58-.28-7.21-.43-10.86-.43a133.31,133.31,0,1,0,107.84,211.7v0a133.4,133.4,0,0,0,5.27-149ZM351.67,304.36v0A117,117,0,1,1,257,118.59c3.21,0,6.4.13,9.54.38a116.25,116.25,0,0,1,51.18,16.6A117.44,117.44,0,0,1,349,163.27a117,117,0,0,1,2.68,141.09Z" id="elfspteoaxcxl" class="animable" style="transform-origin: 250.01px 249.97px;"></path></g></g><path d="M318.59,220.47c1.09-5,9.69-7.46,19.22-5.41s16.37,7.81,15.28,12.85-9.69,7.46-19.22,5.41S317.51,225.51,318.59,220.47Z" style="fill: rgb(255, 156, 189); transform-origin: 335.841px 224.193px;" id="elxutjmtbjrw" class="animable"></path><g id="elf8gia5zulyb"><ellipse cx="164.16" cy="224.19" rx="17.65" ry="9.34" style="fill: rgb(255, 156, 189); transform-origin: 164.16px 224.19px; transform: rotate(-12.17deg);" class="animable" id="elv0zeorkaw5o"></ellipse></g><path d="M207.4,172.41a35.12,35.12,0,0,0-20.25,5.41,43.45,43.45,0,0,0-5.91,4.54c1.81-11.08,17.47-17.23,26.16-10Z" style="fill: rgb(38, 50, 56); transform-origin: 194.32px 175.799px;" id="eliz00zd29n3" class="animable"></path><path d="M292.6,172.41c8.69-7.28,24.35-1.13,26.16,10a43.45,43.45,0,0,0-5.91-4.54,35.12,35.12,0,0,0-20.25-5.41Z" style="fill: rgb(38, 50, 56); transform-origin: 305.68px 175.833px;" id="el2ljxy0iq4fp" class="animable"></path><path d="M270.16,193.78c-.12.68-2.2,10.92-9.14,18.63a14.64,14.64,0,0,1-7.57,4.83c-5.7,1.28-10.61-1.22-14.49-5.16a38.47,38.47,0,0,1-9.12-16.72s9.75,10,22.06,8.39C263.73,202.15,269.81,194.47,270.16,193.78Z" style="fill: rgb(38, 50, 56); transform-origin: 250px 205.679px;" id="el7dyrw81827l" class="animable"></path><path d="M261,212.41a14.64,14.64,0,0,1-7.57,4.83c-5.7,1.28-10.61-1.22-14.49-5.16,3.08-3.87,7.56-6.4,12.72-5.7A13.34,13.34,0,0,1,261,212.41Z" style="fill: rgb(255, 156, 189); transform-origin: 249.97px 211.921px;" id="elt7u6hfh2h3g" class="animable"></path><path d="M181.78,213.89c.35-6.93,2.95-14.74,9.16-18.85,6.7-4.38,15.95-2.26,20.77,3.86a24.44,24.44,0,0,1,5.44,12.93,37.66,37.66,0,0,0-7.76-10.72c-4.33-4.2-11.1-5.8-16.45-2.78-5.64,3.34-8.44,9.54-11.16,15.56Z" style="fill: rgb(38, 50, 56); transform-origin: 199.465px 203.305px;" id="elz3zwf8381kq" class="animable"></path><path d="M282.85,211.83c.77-6.94,4.67-14.3,11.3-17.56a15.46,15.46,0,0,1,20.12,6.17,28.09,28.09,0,0,1,4,13.45,49.11,49.11,0,0,0-6.55-11.58,13.48,13.48,0,0,0-15.94-4.53c-6,2.6-9.78,8.17-12.88,14.05Z" style="fill: rgb(38, 50, 56); transform-origin: 300.56px 203.307px;" id="ele43o6618jus" class="animable"></path><g id="elgxqkg81n1z7"><path d="M145,220.08c11.24-10.58,29.74-13.51,42-2.87a35.92,35.92,0,0,1,9.18,11.84,60.26,60.26,0,0,0-10.71-9.81c-12.43-8.8-27.73-6-40.45.84Z" style="opacity: 0.1; transform-origin: 170.59px 219.795px;" class="animable" id="el5ro2h8o2fbx"></path></g><g id="el1ro09yoylnn"><path d="M355,220.08c-12.72-6.83-28-9.64-40.45-.84a60.26,60.26,0,0,0-10.71,9.81A35.92,35.92,0,0,1,313,217.21c12.24-10.64,30.74-7.71,42,2.87Z" style="opacity: 0.1; transform-origin: 329.42px 219.795px;" class="animable" id="el3dol949aflu"></path></g><g id="elv8227747uuh"><path d="M231.46,231.35c8.35,6.44,19,11,29,5.7a47.76,47.76,0,0,0,9-6,25,25,0,0,1-7.68,8.23c-10.3,7.16-24,2-30.26-7.92Z" style="opacity: 0.1; transform-origin: 250.46px 236.833px;" class="animable" id="eluapji1frdzd"></path></g><g id="elof1qfg2gho"><g style="opacity: 0.2; transform-origin: 321.892px 157.588px;" class="animable" id="elsmgenerqfw"><path d="M302.05,157.65c6.05,8.58,28.18,8,29.27-1.34.9-7.68-6.61-13.83-12.05-15.82s-13.46-1.59-16.87,3.44C299.51,148.18,299.82,154.51,302.05,157.65Z" style="fill: rgb(255, 255, 255); transform-origin: 315.849px 151.547px;" id="el3hrgpqv4ygv" class="animable"></path><path d="M334.07,164.11c-3.44,1.89-2.3,9.33,1.33,11.21s8.3-2.13,8.07-5.23S337.18,162.4,334.07,164.11Z" style="fill: rgb(255, 255, 255); transform-origin: 337.741px 169.771px;" id="elciwjhexvdy" class="animable"></path></g></g></g><g id="freepik--Clouds--inject-23" class="animable animator-hidden" style="transform-origin: 250.01px 252.189px;"><path d="M455.18,129.06H307.37S322,89,344.58,89s29.62,27.62,29.62,27.62,15.22-15,27.72-15,23.37,19.84,23.37,19.84S443,110.82,455.18,129.06Z" style="fill: rgb(255, 255, 255); transform-origin: 381.275px 109.03px;" id="el1455bzjuujr" class="animable"></path><path d="M455.18,129.06c-.08,0-147.88.1-148,.11A110.5,110.5,0,0,1,319,106.67c6.94-10.17,17.92-20.51,31.22-17.12,12.59,2.78,21,15.63,24,27.06,7.56-6.84,17.06-14.4,27.62-15,10.43.26,18.62,11.7,23.54,19.86h0c11.09-6,23.08-3.09,29.91,7.59Zm0,0c-6.84-10.66-18.82-13.59-29.88-7.55h0l0,0c-4.88-8.1-13.12-19.55-23.49-19.79-10.52.61-20,8.18-27.52,15-3.62-11.29-11.27-24.23-24.1-27-8.57-2.13-16.76,1.46-22.86,7.44a60.6,60.6,0,0,0-8.11,9.62,109.48,109.48,0,0,0-11.71,22.29c-.7-.4,147.85.1,147.71,0Z" style="fill: rgb(38, 50, 56); transform-origin: 381.235px 109.032px;" id="el3tfyyjyn7m8" class="animable"></path><path d="M136.27,199.72H67.2s15.43-22.36,27.59-22.36,15.75,14.91,15.75,14.91,8.58-7,16.54-5.72S136.27,199.72,136.27,199.72Z" style="fill: rgb(255, 255, 255); transform-origin: 101.735px 188.54px;" id="elkwm0mbvttf" class="animable"></path><path d="M136.27,199.72c-.09-.16-69.72.42-69.16-.06a98.28,98.28,0,0,1,9.55-11.52c3.5-3.55,7.28-6.94,11.78-9.18,10.64-5.5,19.79,3.42,22.07,13.27,11.48-8.4,23.39-9.27,25.76,7.49Zm0,0C133.84,183,122,183.9,110.58,192.31c-2.52-8.2-8.7-16.69-18.58-14.48-6,1.68-10.83,6.14-15.17,10.48a101.7,101.7,0,0,0-9.55,11.47c-.71-.44,69.14.08,69-.06Z" style="fill: rgb(38, 50, 56); transform-origin: 101.693px 188.566px;" id="elqavo4e4o1fm" class="animable"></path><path d="M422.24,304.23H353.17s15.43-22.36,27.59-22.36,15.75,14.91,15.75,14.91,8.59-7,16.54-5.72S422.24,304.23,422.24,304.23Z" style="fill: rgb(255, 255, 255); transform-origin: 387.705px 293.05px;" id="elqigjvj7ju8d" class="animable"></path><path d="M422.24,304.23c-.09-.16-69.72.42-69.16-.06a99.38,99.38,0,0,1,9.55-11.53c3.5-3.54,7.29-6.94,11.78-9.17,10.64-5.5,19.79,3.42,22.07,13.27,11.49-8.41,23.39-9.27,25.76,7.49Zm0,0c-2.43-16.72-14.25-15.82-25.69-7.41-2.52-8.21-8.7-16.69-18.58-14.48-6,1.68-10.83,6.14-15.16,10.47a100.84,100.84,0,0,0-9.56,11.48c-.71-.44,69.14.08,69-.06Z" style="fill: rgb(38, 50, 56); transform-origin: 387.663px 293.076px;" id="elz2fsjhwopln" class="animable"></path><path d="M246,415.35H177S192.4,393,204.56,393s15.76,14.91,15.76,14.91,8.58-7,16.53-5.72S246,415.35,246,415.35Z" style="fill: rgb(255, 255, 255); transform-origin: 211.5px 404.175px;" id="el1nix2k7askb" class="animable"></path><path d="M246,415.35c-.09-.16-69.71.42-69.16-.06a99.45,99.45,0,0,1,9.55-11.52c3.5-3.55,7.29-6.95,11.78-9.18,10.64-5.5,19.8,3.42,22.07,13.27,11.49-8.4,23.39-9.27,25.76,7.49Zm0,0c-2.42-16.72-14.25-15.82-25.69-7.41-2.52-8.21-8.7-16.69-18.58-14.48-6,1.68-10.83,6.14-15.16,10.48a100.65,100.65,0,0,0-9.55,11.47c-.72-.44,69.13.08,69-.06Z" style="fill: rgb(38, 50, 56); transform-origin: 211.428px 404.196px;" id="elxgf3k3zd7vr" class="animable"></path><path d="M208.6,379.23H44.82S67.25,329.16,91.24,326s35.47,37.21,35.47,37.21S142.18,349,154.36,349s21.55,18.78,21.55,18.78S200.25,354.89,208.6,379.23Z" style="fill: rgb(255, 255, 255); transform-origin: 126.71px 352.527px;" id="elm4i4yvi41r" class="animable"></path><path d="M208.6,379.23c-.1-.15-164.24.39-163.87,0,8.35-17.32,21.32-40.71,38.33-50.46,10.38-6,21.34-2.34,28.83,6.29,6.92,7.89,12,18.42,14.78,28.17a79.33,79.33,0,0,1,12.4-9.07c4.41-2.54,9.23-4.81,14.37-5.12,10.3-.53,18,10.71,22.5,18.74h0c13.63-6.54,27.64-4.1,32.7,11.5Zm0,0c-5.07-15.57-19.08-18-32.67-11.45h0v0c-4.43-8-12.2-19.22-22.44-18.68-5.13.31-9.93,2.58-14.32,5.13a79,79,0,0,0-12.37,9.06l-.08.07,0-.1a93.4,93.4,0,0,0-6-14.83c-7.07-14.32-20.57-28.88-37.48-19.5-16.85,9.67-29.92,33.16-38.24,50.35-.65-.42,163.79.1,163.68,0Z" style="fill: rgb(38, 50, 56); transform-origin: 126.705px 352.595px;" id="elt5635e8rivo" class="animable"></path></g><g id="freepik--Birds--inject-23" class="animable animator-hidden" style="transform-origin: 250px 249.98px;"><path d="M90.54,77.53a30.92,30.92,0,0,1,3.74-1.6A16,16,0,0,1,98.35,75a3.48,3.48,0,0,1,1.27.14,1.55,1.55,0,0,1,.39.19c.1.06.16.12.25.18a4.94,4.94,0,0,1,.44.36,19,19,0,0,1,1.48,1.5c.92,1,1.73,2.1,2.55,3.21l-1-.36a32.72,32.72,0,0,1,4.16-.88,19.28,19.28,0,0,1,2.17-.15,9.3,9.3,0,0,1,1.16.08,3.12,3.12,0,0,1,1.24.45,7.35,7.35,0,0,1,1.65,1.58A20.19,20.19,0,0,1,115.33,83a26.78,26.78,0,0,1,1.93,3.72c-.89-1.07-1.75-2.15-2.67-3.16a19.39,19.39,0,0,0-1.4-1.46A6.61,6.61,0,0,0,111.73,81a3.7,3.7,0,0,0-1.63-.16,16.84,16.84,0,0,0-1.95.26c-1.3.24-2.64.56-3.92.91l-.64.18-.37-.53c-.75-1.08-1.56-2.14-2.37-3.16A18,18,0,0,0,99.59,77a3,3,0,0,0-.32-.3l-.15-.13a.07.07,0,0,0-.06,0,2,2,0,0,0-.71-.14,19.28,19.28,0,0,0-3.85.37C93.19,77,91.87,77.29,90.54,77.53Z" style="fill: rgb(38, 50, 56); transform-origin: 103.9px 80.8551px;" id="elr28vlj3fd4k" class="animable"></path><path d="M101,118.37a45.57,45.57,0,0,1,5-3.44,23.18,23.18,0,0,1,5.71-2.57,5.12,5.12,0,0,1,1.9-.17,3.43,3.43,0,0,1,.63.16l.42.19c.28.13.5.27.75.4a29.77,29.77,0,0,1,2.61,1.77c1.65,1.25,3.17,2.59,4.69,4l-1.59-.23A45.85,45.85,0,0,1,127,116a24.29,24.29,0,0,1,3.15-.86,10.36,10.36,0,0,1,1.72-.22,6.32,6.32,0,0,1,1,0,7.69,7.69,0,0,1,1,.25,11.06,11.06,0,0,1,2.87,1.84c.83.7,1.58,1.44,2.32,2.19a40.94,40.94,0,0,1,3.93,4.9c-1.63-1.32-3.21-2.65-4.86-3.86a29.2,29.2,0,0,0-2.48-1.74,10.13,10.13,0,0,0-2.48-1.25,5.75,5.75,0,0,0-2.44.24,23.48,23.48,0,0,0-2.78,1c-1.85.73-3.72,1.59-5.5,2.48l-.89.44-.7-.67c-1.41-1.36-2.91-2.68-4.4-3.94a27.25,27.25,0,0,0-2.27-1.76c-.19-.12-.38-.26-.56-.35l-.25-.14s0,0-.1,0a3.07,3.07,0,0,0-1.1,0,29.5,29.5,0,0,0-5.54,1.67C104.72,116.84,102.87,117.62,101,118.37Z" style="fill: rgb(38, 50, 56); transform-origin: 121.995px 118.133px;" id="elxys2kjxvv6b" class="animable"></path><path d="M421.58,420.3a29.29,29.29,0,0,1,3.43-2.19,15.37,15.37,0,0,1,3.87-1.6,3.45,3.45,0,0,1,1.27-.06,1.8,1.8,0,0,1,.41.11l.28.14c.18.09.33.19.49.28a20.25,20.25,0,0,1,1.71,1.24c1.07.87,2,1.79,3,2.75l-1.06-.18a29.81,29.81,0,0,1,4-1.55,17.73,17.73,0,0,1,2.12-.51,8.49,8.49,0,0,1,1.16-.1,3.6,3.6,0,0,1,.64,0c.21,0,.44.13.66.19a7.34,7.34,0,0,1,1.88,1.29,19.26,19.26,0,0,1,1.49,1.51,27.94,27.94,0,0,1,2.52,3.35c-1.05-.91-2.08-1.83-3.15-2.68a20,20,0,0,0-1.62-1.21,6.72,6.72,0,0,0-1.63-.88,3.81,3.81,0,0,0-1.64.1,17.41,17.41,0,0,0-1.87.58c-1.25.45-2.51,1-3.72,1.54l-.61.28-.45-.47c-.91-.93-1.89-1.85-2.85-2.72a18,18,0,0,0-1.48-1.22l-.36-.25-.17-.1s0,0-.07,0a2,2,0,0,0-.72,0,19.63,19.63,0,0,0-3.74,1C424.11,419.35,422.86,419.84,421.58,420.3Z" style="fill: rgb(38, 50, 56); transform-origin: 435.515px 420.694px;" id="elq8hqatdm5op" class="animable"></path><path d="M359.47,393.34a43.36,43.36,0,0,1,3.78-4.78,23.3,23.3,0,0,1,4.69-4.15,5,5,0,0,1,1.77-.72,3.13,3.13,0,0,1,.64,0l.46.06c.3,0,.55.11.83.16a27.27,27.27,0,0,1,3,.92c1.95.7,3.79,1.53,5.66,2.4l-1.59.25a46.49,46.49,0,0,1,4.85-4.12,24.92,24.92,0,0,1,2.76-1.76,12.14,12.14,0,0,1,1.58-.72,6.18,6.18,0,0,1,.92-.24,7.17,7.17,0,0,1,1-.06,10.74,10.74,0,0,1,3.28.9,30.55,30.55,0,0,1,2.87,1.41,40.76,40.76,0,0,1,5.2,3.5c-1.94-.77-3.85-1.57-5.78-2.24-1-.35-1.92-.68-2.88-.93a10.22,10.22,0,0,0-2.75-.45,5.7,5.7,0,0,0-2.26,1,24.94,24.94,0,0,0-2.36,1.73c-1.56,1.25-3.08,2.63-4.52,4l-.72.69-.87-.43c-1.75-.88-3.57-1.69-5.37-2.46a28.69,28.69,0,0,0-2.69-1c-.21,0-.44-.13-.64-.16l-.28-.06s0,0-.11,0a3.05,3.05,0,0,0-1,.32,29.86,29.86,0,0,0-4.8,3.25C362.58,390.77,361.05,392.06,359.47,393.34Z" style="fill: rgb(38, 50, 56); transform-origin: 380.32px 386.96px;" id="elcs7rxajch2h" class="animable"></path><path d="M50.55,101.59a43.36,43.36,0,0,1,3.78-4.78A23.34,23.34,0,0,1,59,92.65a5.42,5.42,0,0,1,1.76-.72,2.7,2.7,0,0,1,.65,0c.18,0,.3,0,.46.06a7.17,7.17,0,0,1,.83.16,27.26,27.26,0,0,1,3,.91c2,.7,3.79,1.53,5.66,2.4l-1.59.26a46.59,46.59,0,0,1,4.85-4.13,26.47,26.47,0,0,1,2.76-1.76A10.93,10.93,0,0,1,79,89.09a5.86,5.86,0,0,1,.92-.25,7.12,7.12,0,0,1,1-.06,11.1,11.1,0,0,1,3.29.9,31.65,31.65,0,0,1,2.86,1.41,40.24,40.24,0,0,1,5.21,3.51c-1.94-.77-3.85-1.57-5.78-2.25a29.1,29.1,0,0,0-2.88-.92A9.85,9.85,0,0,0,80.9,91a5.66,5.66,0,0,0-2.26,1,23.42,23.42,0,0,0-2.36,1.74c-1.56,1.24-3.08,2.62-4.52,4l-.72.69-.87-.44c-1.75-.87-3.58-1.69-5.37-2.45a26.15,26.15,0,0,0-2.69-1c-.21-.06-.44-.13-.64-.17l-.28-.06s0,0-.11,0a2.89,2.89,0,0,0-1,.33,29.14,29.14,0,0,0-4.8,3.24C53.66,99,52.13,100.31,50.55,101.59Z" style="fill: rgb(38, 50, 56); transform-origin: 71.415px 95.1848px;" id="el8ely3rt7zwn" class="animable"></path></g><defs>     <filter id="active" height="200%">         <feMorphology in="SourceAlpha" result="DILATED" operator="dilate" radius="2"></feMorphology>                <feFlood flood-color="#32DFEC" flood-opacity="1" result="PINK"></feFlood>        <feComposite in="PINK" in2="DILATED" operator="in" result="OUTLINE"></feComposite>        <feMerge>            <feMergeNode in="OUTLINE"></feMergeNode>            <feMergeNode in="SourceGraphic"></feMergeNode>        </feMerge>    </filter>    <filter id="hover" height="200%">        <feMorphology in="SourceAlpha" result="DILATED" operator="dilate" radius="2"></feMorphology>                <feFlood flood-color="#ff0000" flood-opacity="0.5" result="PINK"></feFlood>        <feComposite in="PINK" in2="DILATED" operator="in" result="OUTLINE"></feComposite>        <feMerge>            <feMergeNode in="OUTLINE"></feMergeNode>            <feMergeNode in="SourceGraphic"></feMergeNode>        </feMerge>            <feColorMatrix type="matrix" values="0   0   0   0   0                0   1   0   0   0                0   0   0   0   0                0   0   0   1   0 "></feColorMatrix>    </filter></defs></svg>